{"title":"Paranormal Activity 3 2011 TS V2 (New Source) XviD-MiSTERE","uid":6779596,"size":1139704186,"categoryP":"video","categoryS":"movies","magnet":"?xt=urn:btih:a182ff939a6e6121ebb4438ee89fa84d18a210c9&amp;dn=Paranormal+Activity+3+2011+TS+V2+%28New+Source%29+XviD-MiSTERE&amp;tr=udp%3A%2F%2Ftracker.openbittorrent.com%3A80&amp;tr=udp%3A%2F%2Fopen.demonii.com%3A1337&amp;tr=udp%3A%2F%2Ftracker.coppersurfer.tk%3A6969&amp;tr=udp%3A%2F%2Fexodus.desync.com%3A6969","seeders":0,"leechers":1,"uploader":".BONE.","files":3,"time":1319848640,"description":"Paranormal Activity 3 2011 TS V2 XviD - MiSTERE\n &lt;a href=&quot;\nhttp://www.imdb.com/title/tt1778304/&quot; rel=&quot;nofollow&quot; target=&quot;_NEW&quot;&gt;\nhttp://www.imdb.com/title/tt1778304/&lt;/a&gt;\n\nVideo\nID                               : 0\nFormat                           : MPEG-4 Visual\nFormat profile                   : Advanced Simple@L5\nFormat settings, BVOP            : 2\nFormat settings, QPel            : No\nFormat settings, GMC             : No warppoints\nFormat settings, Matrix          : Default (H.263)\nMuxing mode                      : Packed bitstream\nCodec ID                         : XVID\nCodec ID/Hint                    : XviD\nDuration                         : 1h 18mn\nBit rate                         : 1 754 Kbps\nWidth                            : 720 pixels\nHeight                           : 304 pixels\nDisplay aspect ratio             : 2.35:1\nFrame rate                       : 25.000 fps\nColor space                      : YUV\nChroma subsampling               : 4:2:0\nBit depth                        : 8 bits\nScan type                        : Progressive\nCompression mode                 : Lossy\nBits/(Pixel*Frame)               : 0.321\nStream size                      : 988 MiB (93%)\nWriting library                  : XviD 64\n\nAudio\nID                               : 1\nFormat                           : MPEG Audio\nFormat version                   : Version 1\nFormat profile                   : Layer 3\nMode                             : Joint stereo\nMode extension                   : MS Stereo\nCodec ID                         : 55\nCodec ID/Hint                    : MP3\nDuration                         : 1h 18mn\nBit rate mode                    : Constant\nBit rate                         : 128 Kbps\nChannel(s)                       : 2 channels\nSampling rate                    : 44.1 KHz\nCompression mode                 : Lossy\nStream size                      : 72.1 MiB (7%)\nAlignment                        : Split accross interleaves\nInterleave, duration             : 40 ms (1.00 video frame)\n\n\n\nThanks to TNZ for the source files\nResized sharpened and tweaked RGB\nOverall not a bad video, much better\nthan V1\n &lt;a href=&quot;\nhttp://img.sceper.eu/images/pjvvc.png&quot; rel=&quot;nofollow&quot; target=&quot;_NEW&quot;&gt;\nhttp://img.sceper.eu/images/pjvvc.png&lt;/a&gt;\n &lt;a href=&quot;\nhttp://img.sceper.eu/images/abagqsvs.png&quot; rel=&quot;nofollow&quot; target=&quot;_NEW&quot;&gt;\nhttp://img.sceper.eu/images/abagqsvs.png&lt;/a&gt;\n &lt;a href=&quot;\nhttp://img.sceper.eu/images/xsvch.png&quot; rel=&quot;nofollow&quot; target=&quot;_NEW&quot;&gt;\nhttp://img.sceper.eu/images/xsvch.png&lt;/a&gt;\n\n","torrent":{"xt":"urn:btih:a182ff939a6e6121ebb4438ee89fa84d18a210c9","amp;dn":"Paranormal+Activity+3+2011+TS+V2+%28New+Source%29+XviD-MiSTERE","amp;tr":["udp%3A%2F%2Ftracker.openbittorrent.com%3A80","udp%3A%2F%2Fopen.demonii.com%3A1337","udp%3A%2F%2Ftracker.coppersurfer.tk%3A6969","udp%3A%2F%2Fexodus.desync.com%3A6969"],"infoHash":"a182ff939a6e6121ebb4438ee89fa84d18a210c9","infoHashBuffer":{"type":"Buffer","data":[161,130,255,147,154,110,97,33,235,180,67,142,232,159,168,77,24,162,16,201]},"announce":[],"urlList":[]}}